<?xml version="1.0" encoding="UTF-8"?>
<svg id="Layer_1" data-name="Layer 1" xmlns="http://www.w3.org/2000/svg" viewBox="0 0 760.6 190.25">
  <defs>
    <style>
      .cls-1 {
        fill: #f29422;
      }

      .cls-2 {
        fill: #e62737;
      }

      .cls-3 {
        fill: #152232;
      }

      .cls-4 {
        fill: #289e49;
      }
    </style>
  </defs>
  <g>
    <path class="cls-3" d="m307.09,131.54v23.01h-84.77V35.7h25.6v95.84h59.16Z"/>
    <path class="cls-3" d="m319.68,38.99c0-7.09,6.06-13.49,13.84-13.49s13.49,6.4,13.49,13.49c0,7.61-6.06,13.84-13.49,13.84s-13.84-6.23-13.84-13.84Zm1.04,26.12h25.26v89.44h-25.26v-89.44Z"/>
    <path class="cls-3" d="m500.46,97.63v57.09h-24.22v-52.76c0-10.38-6.57-17.65-15.92-17.65-10.03,0-17.3,6.75-17.3,16.26v54.15h-24.22v-52.76c0-10.38-6.57-17.65-15.74-17.65-10.21,0-17.3,6.75-17.3,16.26v53.97h-25.26v-89.44h25.26v11.76c4.32-8.48,13.15-13.84,24.22-13.84,12.28,0,22.84,6.23,28.37,16.26,4.67-9.86,15.74-16.26,29.06-16.26,18.68,0,33.04,14.36,33.04,34.6Z"/>
    <path class="cls-3" d="m611.18,109.74c0,27.51-17.3,46.88-41.17,46.88-12.46,0-22.84-5.36-29.93-14.71v12.63h-25.26V33.63h25.26v43.94c7.09-9.17,17.47-14.53,29.93-14.53,23.87,0,41.17,19.38,41.17,46.71Zm-24.56,0c0-14.88-9.86-25.43-23.87-25.43-12.28,0-21.28,9-22.66,21.97v6.92c1.38,13.15,10.38,22.14,22.66,22.14,14.01,0,23.87-10.55,23.87-25.6Z"/>
    <path class="cls-3" d="m622.08,33.63h25.26v120.92h-25.26V33.63Z"/>
    <path class="cls-3" d="m725.19,126.35l16.09,16.43c-7.96,8.3-23.35,13.84-36.5,13.84-26.64,0-47.4-19.55-47.4-47.06s19.9-46.54,46.02-46.54c28.03,0,44.46,21.28,44.46,55.01h-64.53c2.94,9.69,10.73,16.26,21.28,16.26,7.09,0,15.74-3.29,20.59-7.96Zm-41.52-26.47h39.96c-2.42-8.82-9-14.53-19.2-14.53-9.51,0-17.47,5.54-20.76,14.53Z"/>
  </g>
  <g>
    <path class="cls-4" d="m153.74,50.78c-.23-.3-.26-.81-.08-1.14,3.21-5.64,6.42-11.27,9.62-16.91.24-.41.13-1-.23-1.31l-15.3-12.9c-.35-.3-.94-.31-1.31-.02l-15.4,12.02c-.29.23-.79.27-1.12.1-6.33-3.23-14.96-5.73-18.04-6.36-.37-.08-.74-.44-.81-.82-1.23-6.44-2.46-12.89-3.69-19.33-.09-.47-.55-.85-1.03-.84l-20.01.11c-.46,0-.92.38-1.01.83l-4.07,19.87c-.07.33-.39.69-.71.79-1.37.41-4.84,1.47-7.44,2.4v.02s0-.02,0-.02c-3.46,1.31-4.72,1.94-8.15,3.68-.32.16-.81.12-1.09-.09l-15.72-11.65c-.38-.28-.98-.25-1.33.07l-14.64,13.64c-.34.32-.42.9-.18,1.3l9.51,15.78c.2.33.17.84-.05,1.15-.94,1.29-1.93,2.78-2.66,3.9-.6.93-.18,1.65.93,1.6,85.15-3.66,86.98,28.56,85.62,38.3,0,.02,0,.06-.01.08l-.19.88c-.23,1.08.41,1.61,1.43,1.18,12.22-5.25,28.84-35.04,31.2-39.35.16-.29.15-.75-.02-1.03-.2-.33-3.82-5.69-3.99-5.91Z"/>
    <path class="cls-1" d="m172.36,111.76c.43-2.65.67-5.3.79-7.97.02-.37.32-.79.67-.92l18.54-7.02c.44-.17.74-.69.65-1.16l-3.56-19.69c-.08-.46-.53-.84-.99-.85l-19.88-.57c-.36-.01-.77-.29-.92-.62-.86-1.88-2.26-4.23-3.21-5.75-.55-.87-1.36-.82-1.81.1-34.8,70.49-66.37,57.99-75.62,52.15-1.45-.92-2.13-.38-1.54,1.23,0,0,6.23,20.7,18.73,49,.16.35.59.64.98.63,1.79-.05,4.97-.22,8.25-.75.37-.06.83.14,1.04.45,3.63,5.51,7.25,11.01,10.88,16.52.26.4.83.57,1.27.39l18.44-7.78c.43-.18.7-.7.62-1.16l-3.63-18.72c-.07-.37.15-.81.44-1.05,2.24-1.82,10.75-8.77,12.65-10.87.25-.27.73-.4,1.08-.29l18.97,6.09c.45.15,1.01-.08,1.23-.5l9.49-17.62c.22-.41.11-.99-.24-1.29l-14.89-12.58c-.28-.24-.43-.72-.32-1.08.8-2.72,1.45-5.5,1.92-8.32Z"/>
    <path class="cls-2" d="m86.68,73.5c.95.67.8,1.48-.3,1.84-9.35,2.99-35.55,18.71,5.2,92.69.5.92.07,1.61-.97,1.54-1.82-.12-4.54-.31-6.31-.54-.36-.05-.81.17-1,.47l-10.3,16.17c-.25.39-.81.58-1.24.41l-18.73-7.04c-.45-.17-.74-.69-.66-1.16,1.11-6.25,2.23-12.51,3.34-18.76.07-.38-.14-.86-.47-1.06-2.6-1.57-5.73-4.3-5.73-4.3v-.05s-.01.05-.01.05c-2.07-1.71-4.03-3.53-5.88-5.44-.25-.26-.73-.38-1.07-.26l-18.97,6.3c-.44.15-.99-.06-1.23-.46l-10.09-17.28c-.24-.41-.14-1,.22-1.31l14.67-12.65c.29-.25.42-.75.3-1.11-.97-2.94-2.92-8.93-3.46-19.23-.02-.37-.3-.79-.65-.93l-18.36-7.41c-.43-.17-.72-.69-.63-1.15l3.5-19.7c.08-.47.54-.85,1.02-.86l20.72-.15c.1-.24.2-.48.3-.71.16-.36.87-1.91,1.07-2.32.22-.45,1.67-3.25,1.67-3.25.16-.31.58-.56.93-.55,37.26.16,49.42,5.6,53.1,8.2Z"/>
  </g>
</svg>